<?xml version="1.0" encoding="utf-8"?>
<!-- Generator: Adobe Illustrator 19.0.0, SVG Export Plug-In . SVG Version: 6.00 Build 0)  -->
<svg version="1.1" id="Layer_1" xmlns="http://www.w3.org/2000/svg" xmlns:xlink="http://www.w3.org/1999/xlink" x="0px" y="0px"
	 viewBox="26.1 26.1 11.8 11.9" style="enable-background:new 26.1 26.1 11.8 11.9;" xml:space="preserve">
<g>
	<path d="M30,31c0.3,0,0.5-0.2,0.5-0.5v-1.9c0-0.9,0.7-1.6,1.6-1.6c0.9,0,1.6,0.7,1.6,1.6v1.9c0,0.3,0.2,0.5,0.5,0.5
		c0.3,0,0.5-0.2,0.5-0.5v-1.9c0-1.4-1.1-2.6-2.6-2.6c-1.4,0-2.6,1.1-2.6,2.6v1.9C29.5,30.8,29.7,31,30,31z"/>
	<path d="M37.7,29.9h-2.6v0.6c0,0.5-0.4,1-1,1c-0.5,0-1-0.4-1-1v-0.6h-2.1v0.6c0,0.5-0.4,1-1,1c-0.5,0-1-0.4-1-1v-0.6h-2.7
		c-0.1,0-0.2,0.1-0.2,0.2l1.7,7.1c0.1,0.4,0.5,0.7,0.9,0.7h6.4c0.4,0,0.8-0.3,0.9-0.7l1.7-7.1C37.9,30,37.8,29.9,37.7,29.9z"/>
</g>
</svg>
