<?xml version="1.0" encoding="utf-8"?>
<!-- Generator: Adobe Illustrator 19.0.0, SVG Export Plug-In . SVG Version: 6.00 Build 0)  -->
<svg version="1.1" id="Layer_1" xmlns="http://www.w3.org/2000/svg" xmlns:xlink="http://www.w3.org/1999/xlink" x="0px" y="0px"
	 viewBox="-292 379.9 26.9 34.1" style="enable-background:new -292 379.9 26.9 34.1;" xml:space="preserve">
<style type="text/css">
	.st0{fill:#F7E184;}
</style>
<path class="st0" d="M-278.4,379.9h-0.1l-13.5,1.4V406l13.5,8l13.4-8l0,0v-24.7L-278.4,379.9z M-267,392l-11.5-6.8v-0.1l-0.1,0.1
	l-0.1-0.1v0.1l-11.4,6.8v-9l11.5-1.2l11.6,1.2V392L-267,392z M-278.6,386.7l11.5,6.7l-4.5,2.6l-7.1-4.2v1.4l5.9,3.5l-0.9,0.5l-5-3
	v1.4l3.8,2.3l-0.8,0.5l-3-1.8v1.4l1.9,1.1l-1.8,1.1l-11.4-6.7L-278.6,386.7z M-290.1,395l11.4,6.8v1l-7.9-4.7v1.4l8,4.8v1.1l-8-4.7
	v1.4l8,4.8l0,0l8.1-4.9v-5.2l3.4-2v10l-11.5,6.9l-11.5-6.8V395z"/>
</svg>
