<?xml version="1.0" encoding="utf-8"?>
<!-- Generator: Adobe Illustrator 19.0.0, SVG Export Plug-In . SVG Version: 6.00 Build 0)  -->
<svg version="1.1" id="Layer_1" xmlns="http://www.w3.org/2000/svg" xmlns:xlink="http://www.w3.org/1999/xlink" x="0px" y="0px"
	 viewBox="45 45 38.1 38.1" style="enable-background:new 45 45 38.1 38.1;" xml:space="preserve">
<style type="text/css">
	.st0{fill:#FFFFFF;}
</style>
<g>
	<path class="st0" d="M64,45c-10.5,0-19,8.5-19,19c0,10.5,8.5,19,19,19c10.5,0,19-8.5,19-19C83.1,53.5,74.6,45,64,45z M64,81.5
		c-9.7,0-17.5-7.9-17.5-17.5c0-9.7,7.9-17.5,17.5-17.5c9.7,0,17.5,7.9,17.5,17.5C81.6,73.7,73.7,81.5,64,81.5z"/>
	<path class="st0" d="M69.1,59.6c0.5-0.2,0.8-0.8,0.8-1.4v-3c0-0.8-0.7-1.5-1.5-1.5h-2.6c-3.7,0-5.7,1.9-5.7,5.5v0.3h-0.4
		c-0.8,0-1.5,0.7-1.5,1.5v3c0,0.8,0.7,1.5,1.5,1.5h0.4v7.3c0,0.8,0.7,1.5,1.5,1.5h3.9c0.8,0,1.5-0.7,1.5-1.5v-7.3h1.1
		c0.8,0,1.4-0.6,1.5-1.3l0.3-3c0-0.4-0.1-0.9-0.4-1.2C69.5,59.8,69.3,59.7,69.1,59.6z M68.1,64h-2.6v8.8h-3.9V64h-2v-3h2v-1.8
		c0-2.5,1.1-3.9,4.2-3.9h2.6v3h-1.6c-1.2,0-1.3,0.4-1.3,1.2l0,1.5h3L68.1,64z"/>
</g>
</svg>
