<?xml version="1.0" encoding="utf-8"?>
<!-- Generator: Adobe Illustrator 19.0.0, SVG Export Plug-In . SVG Version: 6.00 Build 0)  -->
<svg version="1.1" id="Layer_1" xmlns="http://www.w3.org/2000/svg" xmlns:xlink="http://www.w3.org/1999/xlink" x="0px" y="0px"
	 viewBox="45 45 38.1 38.1" style="enable-background:new 45 45 38.1 38.1;" xml:space="preserve">
<style type="text/css">
	.st0{fill:#FFFFFF;}
</style>
<g>
	<path class="st0" d="M64,45c-10.5,0-19,8.5-19,19c0,10.5,8.5,19,19,19c10.5,0,19-8.5,19-19C83.1,53.5,74.6,45,64,45z M64,81.5
		c-9.7,0-17.5-7.9-17.5-17.5c0-9.7,7.9-17.5,17.5-17.5S81.6,54.3,81.6,64C81.6,73.7,73.7,81.5,64,81.5z"/>
	<path class="st0" d="M70.1,53.7H58c-2.5,0-4.6,2-4.6,4.6v11.5c0,2.5,2,4.6,4.6,4.6h12c2.5,0,4.6-2,4.6-4.6V58.3
		C74.6,55.8,72.6,53.7,70.1,53.7z M58,55.2h12c1.7,0,3,1.4,3,3v3h-5.8c-0.8-0.8-2-1.3-3.2-1.3c-1.3,0-2.4,0.5-3.2,1.3H55v-3
		C55,56.6,56.4,55.2,58,55.2z M64,61.5c1.7,0,3.2,1.4,3.2,3.2c0,1.7-1.4,3.2-3.2,3.2c-1.7,0-3.2-1.4-3.2-3.2
		C60.9,62.9,62.3,61.5,64,61.5z M70.1,72.8H58c-1.7,0-3-1.4-3-3v-7h4.8c-0.2,0.6-0.4,1.2-0.4,1.8c0,2.6,2.1,4.7,4.7,4.7
		c2.6,0,4.7-2.1,4.7-4.7c0-0.7-0.1-1.3-0.4-1.8h4.8v7C73.1,71.4,71.7,72.8,70.1,72.8z"/>
	<path class="st0" d="M69,59.6h1.3c0.4,0,0.8-0.3,0.8-0.8v-1.3c0-0.4-0.3-0.8-0.8-0.8H69c-0.4,0-0.8,0.3-0.8,0.8v1.3
		C68.3,59.2,68.6,59.6,69,59.6z"/>
</g>
</svg>
