<?xml version="1.0" encoding="utf-8"?>
<!-- Generator: Adobe Illustrator 19.0.0, SVG Export Plug-In . SVG Version: 6.00 Build 0)  -->
<svg version="1.1" id="Layer_1" xmlns="http://www.w3.org/2000/svg" xmlns:xlink="http://www.w3.org/1999/xlink" x="0px" y="0px"
	 viewBox="45 45 38.1 38.1" style="enable-background:new 45 45 38.1 38.1;" xml:space="preserve">
<style type="text/css">
	.st0{fill:#FFFFFF;}
</style>
<g>
	<path class="st0" d="M64,45c-10.5,0-19,8.5-19,19c0,10.5,8.5,19,19,19c10.5,0,19-8.5,19-19C83,53.5,74.5,45,64,45z M64,81.5
		c-9.7,0-17.5-7.9-17.5-17.5c0-9.7,7.9-17.5,17.5-17.5c9.7,0,17.5,7.9,17.5,17.5C81.5,73.7,73.7,81.5,64,81.5z"/>
	<path class="st0" d="M74.5,58.3c0.1-0.2,0.2-0.4,0.2-0.6c0.1-0.3,0-0.6-0.3-0.8c-0.2-0.2-0.6-0.2-0.9-0.1c-0.6,0.4-1.3,0.6-1.9,0.8
		c-0.9-0.8-2-1.2-3.2-1.2c-2.7,0-4.8,2.2-4.8,4.8c0,0,0,0.1,0,0.1c-2.7-0.4-5.2-1.7-6.9-3.9c-0.2-0.2-0.4-0.3-0.6-0.3
		c-0.2,0-0.5,0.2-0.6,0.4c-0.4,0.7-0.7,1.6-0.7,2.4c0,0.8,0.2,1.5,0.5,2.1c-0.1,0-0.1,0-0.2,0.1c-0.2,0.1-0.4,0.4-0.4,0.6l0,0.1
		c0,1.4,0.6,2.7,1.6,3.6c-0.2,0.2-0.2,0.5-0.1,0.7c0.4,1.3,1.4,2.3,2.5,2.9c-1,0.4-2,0.7-3.1,0.7c-0.3,0-0.6,0-0.9-0.1
		c-0.4,0-0.7,0.2-0.8,0.5c-0.1,0.3,0,0.7,0.3,0.9c2,1.3,4.3,1.9,6.6,1.9c7.7,0,12.3-6.2,12.3-12.3c0-0.1,0-0.1,0-0.2
		c0.7-0.6,1.4-1.3,1.9-2c0.2-0.3,0.2-0.7-0.1-0.9C74.9,58.4,74.7,58.3,74.5,58.3z M72.1,60.5c-0.2,0.2-0.3,0.4-0.3,0.7
		c0,0.2,0,0.3,0,0.5c0,5.3-4,10.8-10.8,10.8c-1.1,0-2.2-0.2-3.2-0.5c1.2-0.3,2.4-0.9,3.4-1.7c0.3-0.2,0.4-0.5,0.3-0.8
		c-0.1-0.3-0.4-0.5-0.7-0.5c-1,0-1.9-0.5-2.5-1.2c0.3,0,0.5-0.1,0.8-0.1c0.3-0.1,0.6-0.4,0.6-0.8c0-0.4-0.3-0.7-0.6-0.7
		c-1.1-0.2-2.1-1-2.4-2.1c0.3,0.1,0.6,0.1,0.8,0.1c0.3,0,0.6-0.2,0.7-0.5c0.1-0.3,0-0.7-0.3-0.9c-0.9-0.6-1.5-1.6-1.5-2.7
		c0-0.2,0-0.4,0.1-0.6c2.1,2.1,5,3.4,8,3.6c0.2,0,0.5-0.1,0.6-0.3c0.2-0.2,0.2-0.4,0.2-0.7c-0.1-0.2-0.1-0.5-0.1-0.7
		c0-1.8,1.5-3.3,3.3-3.3c0.9,0,1.8,0.4,2.4,1c0.2,0.2,0.4,0.3,0.7,0.2c0,0,0.1,0,0.1,0c-0.2,0.2-0.3,0.5-0.2,0.8
		c0.1,0.3,0.4,0.5,0.7,0.5C72.1,60.5,72.1,60.5,72.1,60.5z"/>
</g>
</svg>
